<svg width="265" height="95" viewBox="0 0 265 95" fill="none" xmlns="http://www.w3.org/2000/svg">
<rect width="264.048" height="95" fill="white"/>
<path d="M64.2906 43.4178C55.3572 27.9373 45.7227 16.1267 43.5237 16.4057C41.3247 16.1196 31.6902 27.9431 22.7568 43.4178C13.8233 58.8924 8.87876 72.3312 10.2165 74.0967C10.7115 75.2785 15.7963 76.6291 23.4478 77.5605C25.7255 77.8381 28.2307 78.0656 30.909 78.2644C36.6319 78.6936 41.525 78.1214 44.9058 73.9723C49.0549 68.8832 49.0677 60.4519 44.4451 53.3827C44.209 53.0222 43.6582 53.2626 43.7168 53.6903C44.0683 56.3911 43.9945 59.1303 43.4979 61.8083C42.8141 65.5625 40.0642 68.504 36.3214 68.504C34.8659 68.5042 33.4444 68.0636 32.2441 67.2403C31.0438 66.4169 30.121 65.2494 29.597 63.8914C28.4983 61.04 29.5355 57.5962 30.7803 54.2741C34.141 45.2806 40.7953 37.4202 42.4778 35.6747C43.1274 34.9994 43.8714 34.9522 44.5667 35.6747C46.8415 38.044 58.2287 51.5986 58.2287 64.0144C58.229 66.8442 57.4175 69.6147 55.8903 71.9971C54.3631 74.3794 52.1844 76.2735 49.6129 77.4546C49.0234 77.725 49.1994 78.6178 49.8475 78.5992C64.7184 78.0942 76.0755 75.898 76.8309 74.1025C78.1715 72.3312 73.2241 58.8896 64.2906 43.4178Z" fill="url(#paint0_radial_149_900)"/>
<path d="M92.4723 52.936L98.5923 33.856C98.8083 32.584 98.5803 31.732 97.9083 31.3C99.3483 31.54 100.968 31.66 102.768 31.66C104.568 31.66 106.248 31.54 107.808 31.3C106.944 31.804 106.896 33.124 107.664 35.26L114.36 53.62C115.152 55.42 116.112 56.464 117.24 56.752C113.52 56.272 109.752 56.272 105.936 56.752C106.68 56.128 106.836 55.144 106.404 53.8L104.892 49.588H95.1723C95.0043 50.092 94.8483 50.596 94.7043 51.1C94.4643 51.868 94.3683 52.636 94.4163 53.404C94.4643 54.172 94.6203 54.868 94.8843 55.492C95.1723 56.116 95.5203 56.536 95.9283 56.752C95.1363 56.608 94.1763 56.524 93.0483 56.5C91.9443 56.476 90.8163 56.56 89.6643 56.752C90.1443 56.536 90.6603 56.044 91.2123 55.276C91.7883 54.508 92.2083 53.728 92.4723 52.936ZM99.8523 35.692C99.2043 37.732 98.4243 40.072 97.5123 42.712C96.6003 45.328 95.9883 47.116 95.6763 48.076H104.352L99.8523 35.692ZM135.475 46.096C135.475 47.128 135.283 48.112 134.899 49.048C134.539 49.984 133.999 50.824 133.279 51.568C132.559 52.312 131.611 52.912 130.435 53.368C129.259 53.824 127.927 54.052 126.439 54.052C126.223 54.052 126.007 54.052 125.791 54.052H125.719C125.599 54.028 125.515 54.016 125.467 54.016C123.331 53.896 121.975 54.184 121.399 54.88C121.015 55.336 121.147 55.744 121.795 56.104C122.275 56.368 122.947 56.5 123.811 56.5H129.211C131.251 56.5 132.703 57.292 133.567 58.876C134.311 60.292 134.323 61.756 133.603 63.268C132.739 65.044 131.143 66.1 128.815 66.436L128.455 66.472C127.423 66.544 126.523 66.4 125.755 66.04C124.987 65.704 124.531 65.26 124.387 64.708C124.315 64.42 124.351 64.108 124.495 63.772C124.639 63.436 124.891 63.22 125.251 63.124C125.299 63.46 125.467 63.724 125.755 63.916C126.067 64.108 126.403 64.192 126.763 64.168C127.099 64.168 127.399 64.072 127.663 63.88C127.927 63.712 128.083 63.46 128.131 63.124C128.179 62.692 128.035 62.308 127.699 61.972C127.363 61.636 126.883 61.468 126.259 61.468H123.523C121.099 61.468 119.527 60.628 118.807 58.948C118.231 57.628 118.315 56.308 119.059 54.988C119.707 53.836 120.619 53.2 121.795 53.08C120.355 52.384 119.263 51.4 118.519 50.128C117.775 48.856 117.415 47.476 117.439 45.988C117.463 44.956 117.679 43.96 118.087 43C118.519 42.04 119.095 41.176 119.815 40.408C120.559 39.64 121.507 39.028 122.659 38.572C123.811 38.092 125.071 37.852 126.439 37.852C126.943 37.852 127.435 37.888 127.915 37.96V35.98C127.915 34.9 128.191 34 128.743 33.28C129.295 32.56 129.967 32.128 130.759 31.984C131.551 31.816 132.343 31.816 133.135 31.984C133.951 32.128 134.635 32.524 135.187 33.172C135.763 33.82 136.051 34.612 136.051 35.548C136.051 35.956 135.979 36.328 135.835 36.664C135.691 36.976 135.463 37.252 135.151 37.492C134.839 37.708 134.479 37.84 134.071 37.888C133.855 37.912 133.603 37.9 133.315 37.852C133.051 37.804 132.775 37.72 132.487 37.6C132.199 37.48 131.947 37.324 131.731 37.132C132.115 36.94 132.355 36.64 132.451 36.232C132.547 35.824 132.487 35.44 132.271 35.08C132.055 34.72 131.707 34.528 131.227 34.504C130.819 34.48 130.471 34.684 130.183 35.116C129.919 35.524 129.787 36.196 129.787 37.132V38.392C131.539 38.992 132.919 40.012 133.927 41.452C134.935 42.868 135.451 44.416 135.475 46.096ZM123.883 46.276C123.859 49.444 124.387 51.52 125.467 52.504C126.235 53.176 126.979 53.068 127.699 52.18C128.635 50.98 129.067 48.928 128.995 46.024C128.899 41.368 128.047 39.04 126.439 39.04C125.551 39.04 124.903 39.736 124.495 41.128C124.111 42.52 123.907 44.236 123.883 46.276ZM146.12 52.54C146.144 54.604 146.612 55.972 147.524 56.644C146.156 56.476 144.44 56.392 142.376 56.392C140.336 56.392 138.62 56.476 137.228 56.644C138.164 55.972 138.632 54.604 138.632 52.54V41.596C138.632 39.556 138.164 38.188 137.228 37.492C140.228 37.876 143.192 37.876 146.12 37.492V39.868C146.6 38.644 147.092 37.492 147.596 36.412C148.124 35.332 148.736 34.24 149.432 33.136C150.152 32.008 150.884 31.048 151.628 30.256C152.396 29.464 153.248 28.816 154.184 28.312C155.12 27.808 156.068 27.568 157.028 27.592C158.564 27.616 159.896 28.096 161.024 29.032C162.176 29.968 162.74 31.132 162.716 32.524C162.692 33.292 162.464 34 162.032 34.648C161.6 35.272 161.06 35.74 160.412 36.052C159.764 36.34 159.092 36.508 158.396 36.556C157.724 36.58 157.076 36.4 156.452 36.016C155.852 35.608 155.42 35.02 155.156 34.252C155.732 34.252 156.188 34.132 156.524 33.892C156.884 33.652 157.076 33.364 157.1 33.028C157.148 32.692 157.112 32.368 156.992 32.056C156.896 31.72 156.668 31.444 156.308 31.228C155.948 30.988 155.54 30.868 155.084 30.868C154.388 30.868 153.62 31.36 152.78 32.344C151.94 33.304 151.172 34.492 150.476 35.908C149.78 37.3 149.108 38.788 148.46 40.372C147.836 41.956 147.32 43.372 146.912 44.62C146.528 45.844 146.264 46.78 146.12 47.428V52.54ZM156.56 38.572C157.88 38.02 159.332 37.744 160.916 37.744C162.5 37.744 163.94 38.02 165.236 38.572C166.556 39.124 167.624 39.856 168.44 40.768C169.28 41.656 169.94 42.688 170.42 43.864C170.9 45.016 171.152 46.192 171.176 47.392C171.224 48.592 171.032 49.78 170.6 50.956C170.192 52.108 169.58 53.14 168.764 54.052C167.972 54.94 166.892 55.66 165.524 56.212C164.18 56.764 162.644 57.04 160.916 57.04C159.188 57.04 157.64 56.764 156.272 56.212C154.928 55.66 153.848 54.94 153.032 54.052C152.24 53.14 151.628 52.108 151.196 50.956C150.788 49.78 150.596 48.592 150.62 47.392C150.668 46.192 150.932 45.016 151.412 43.864C151.892 42.688 152.54 41.656 153.356 40.768C154.196 39.856 155.264 39.124 156.56 38.572ZM160.916 55.636C163.028 55.636 164.024 52.912 163.904 47.464C163.88 46.36 163.808 45.34 163.688 44.404C163.592 43.468 163.424 42.592 163.184 41.776C162.968 40.936 162.668 40.288 162.284 39.832C161.9 39.376 161.444 39.148 160.916 39.148C160.604 39.148 160.316 39.232 160.052 39.4C159.788 39.568 159.548 39.808 159.332 40.12C159.14 40.408 158.96 40.768 158.792 41.2C158.648 41.632 158.516 42.1 158.396 42.604C158.3 43.084 158.216 43.624 158.144 44.224C158.072 44.8 158.012 45.388 157.964 45.988C157.94 46.564 157.928 47.164 157.928 47.788C157.904 53.02 158.9 55.636 160.916 55.636ZM183.386 31.3C182.474 31.996 182.006 33.376 181.982 35.44V55.204H185.546C189.194 55.3 191.234 53.008 191.666 48.328C191.57 48.328 191.906 48.328 192.674 48.328V56.752H183.818C183.074 56.752 181.982 56.704 180.542 56.608C179.102 56.536 178.022 56.5 177.302 56.5C175.91 56.5 174.506 56.584 173.09 56.752C174.026 56.08 174.494 54.712 174.494 52.648V35.44C174.494 33.376 174.026 31.996 173.09 31.3C174.482 31.468 176.198 31.552 178.238 31.552C180.302 31.552 182.018 31.468 183.386 31.3ZM204.408 37.6C203.496 38.296 203.028 39.664 203.004 41.704V52.648C203.028 54.712 203.496 56.08 204.408 56.752C203.04 56.584 201.324 56.5 199.26 56.5C197.22 56.5 195.504 56.584 194.112 56.752C195.048 56.08 195.516 54.712 195.516 52.648V41.704C195.516 39.664 195.048 38.296 194.112 37.6C195.504 37.768 197.22 37.852 199.26 37.852C201.324 37.852 203.04 37.768 204.408 37.6ZM196.2 31.3C197.04 30.7 198.036 30.4 199.188 30.4C200.364 30.4 201.36 30.7 202.176 31.3C203.016 31.9 203.436 32.62 203.436 33.46C203.436 34.3 203.016 35.02 202.176 35.62C201.36 36.22 200.364 36.52 199.188 36.52C198.036 36.52 197.04 36.22 196.2 35.62C195.384 35.02 194.976 34.3 194.976 33.46C194.976 32.62 195.384 31.9 196.2 31.3ZM215.133 37.6V38.752C215.709 38.32 216.357 37.984 217.077 37.744C217.821 37.504 218.565 37.384 219.309 37.384C220.077 37.384 220.845 37.468 221.613 37.636C222.381 37.804 223.101 38.092 223.773 38.5C224.469 38.908 225.069 39.4 225.573 39.976C226.101 40.552 226.521 41.26 226.833 42.1C227.145 42.916 227.301 43.804 227.301 44.764V52.648C227.301 54.712 227.757 56.08 228.669 56.752C227.325 56.584 225.657 56.5 223.665 56.5C221.673 56.5 219.981 56.584 218.589 56.752C219.525 56.08 219.993 54.712 219.993 52.648V43.684C219.993 41.644 219.441 40.372 218.337 39.868C217.521 39.484 216.753 39.676 216.033 40.444C215.433 41.116 215.133 42.04 215.133 43.216V52.648C215.157 54.712 215.625 56.08 216.537 56.752C215.169 56.584 213.453 56.5 211.389 56.5C209.349 56.5 207.633 56.584 206.241 56.752C207.177 56.08 207.645 54.712 207.645 52.648V41.704C207.645 39.664 207.177 38.296 206.241 37.6C209.241 37.984 212.205 37.984 215.133 37.6ZM240.298 31.3C239.386 31.996 238.918 33.376 238.894 35.44V46.996L240.406 43.684C241.462 41.596 242.518 40.024 243.574 38.968C244.678 37.864 246.022 37.276 247.606 37.204C249.19 37.108 250.438 37.672 251.35 38.896C251.758 39.496 251.95 40.168 251.926 40.912C251.902 41.968 251.494 42.796 250.702 43.396C249.91 43.996 248.902 44.068 247.678 43.612C248.11 43.324 248.338 42.94 248.362 42.46C248.386 41.956 248.23 41.5 247.894 41.092C247.558 40.684 247.15 40.456 246.67 40.408C245.83 40.288 245.002 40.552 244.186 41.2C244.81 42.328 245.506 43.612 246.274 45.052C247.066 46.492 247.858 47.944 248.65 49.408C249.442 50.848 250.138 52.12 250.738 53.224C251.842 55.144 252.994 56.32 254.194 56.752C252.826 56.584 250.942 56.5 248.542 56.5C246.166 56.5 244.282 56.584 242.89 56.752C243.874 55.816 244.042 54.688 243.394 53.368C243.37 53.368 242.326 51.46 240.262 47.644C240.094 48.004 239.854 48.568 239.542 49.336C239.254 50.104 239.038 50.632 238.894 50.92V52.648C238.918 54.712 239.386 56.08 240.298 56.752C238.93 56.584 237.214 56.5 235.15 56.5C233.11 56.5 231.394 56.584 230.002 56.752C230.938 56.08 231.406 54.712 231.406 52.648V35.44C231.406 33.376 230.938 31.996 230.002 31.3C231.394 31.468 233.11 31.552 235.15 31.552C237.214 31.552 238.93 31.468 240.298 31.3Z" fill="#019548"/>
<defs>
<radialGradient id="paint0_radial_149_900" cx="0" cy="0" r="1" gradientUnits="userSpaceOnUse" gradientTransform="translate(45.1418 53.3226) scale(38.2046 38.2046)">
<stop offset="0.02" stop-color="#8FC640"/>
<stop offset="1" stop-color="#019547"/>
</radialGradient>
</defs>
</svg>
